<svg width="144" height="48" viewBox="0 0 144 48" fill="none" xmlns="http://www.w3.org/2000/svg">
<path d="M68.8073 32.3209C68.6566 32.2475 68.4828 32.1703 68.2859 32.0892C68.0889 32.0042 67.8629 31.9289 67.608 31.8632C67.357 31.7976 67.0731 31.7435 66.7564 31.701C66.4397 31.6547 66.0882 31.6315 65.702 31.6315C65.2347 31.6315 64.8175 31.6585 64.4506 31.7126C64.0876 31.7667 63.7786 31.8516 63.5237 31.9675C63.2726 32.0795 63.0795 32.2224 62.9443 32.3962C62.813 32.57 62.7474 32.7766 62.7474 33.0161C62.7474 33.2169 62.8091 33.3927 62.9327 33.5433C63.0602 33.6939 63.2301 33.8272 63.4426 33.9431C63.6588 34.0589 63.9099 34.1651 64.1957 34.2617C64.4854 34.3544 64.7905 34.4432 65.1111 34.5282C65.4355 34.6093 65.7677 34.6923 66.1075 34.7773C66.4513 34.8623 66.7834 34.955 67.104 35.0554C67.4284 35.1519 67.7336 35.262 68.0194 35.3856C68.309 35.5053 68.5601 35.6463 68.7725 35.8085C68.9888 35.9707 69.1587 36.1561 69.2823 36.3647C69.4098 36.5733 69.4735 36.8147 69.4735 37.0889C69.4735 37.3863 69.4175 37.647 69.3055 37.871C69.1935 38.0911 69.0409 38.2823 68.8478 38.4445C68.6586 38.6029 68.4346 38.7361 68.1758 38.8443C67.9209 38.9486 67.6466 39.0316 67.3531 39.0934C67.0634 39.1552 66.7622 39.1977 66.4493 39.2209C66.1404 39.2479 65.8352 39.2614 65.534 39.2614C64.8426 39.2614 64.215 39.2112 63.6511 39.1108C63.0911 39.0104 62.5562 38.8733 62.0463 38.6994V37.8131C62.5716 38.1259 63.1259 38.3403 63.7091 38.4561C64.2961 38.572 64.9122 38.6299 65.5572 38.6299C66.0129 38.6299 66.4339 38.6029 66.8201 38.5488C67.2063 38.4947 67.5404 38.4098 67.8224 38.2939C68.1043 38.1742 68.3225 38.0197 68.477 37.8304C68.6354 37.6412 68.7146 37.4094 68.7146 37.1352C68.7146 36.9151 68.6508 36.722 68.5234 36.5559C68.3998 36.3898 68.2299 36.245 68.0136 36.1214C67.8011 35.9939 67.5501 35.8819 67.2604 35.7854C66.9746 35.6888 66.6714 35.6 66.3509 35.5189C66.0303 35.4339 65.6981 35.3528 65.3544 35.2755C65.0145 35.1944 64.6843 35.1075 64.3637 35.0148C64.0431 34.9221 63.738 34.8179 63.4484 34.702C63.1625 34.5861 62.9115 34.4509 62.6952 34.2965C62.4828 34.1381 62.3128 33.9566 62.1854 33.7519C62.0618 33.5472 62 33.3096 62 33.0393C62 32.7728 62.0502 32.5372 62.1506 32.3325C62.251 32.1239 62.3882 31.9443 62.562 31.7937C62.7396 31.6431 62.9463 31.5175 63.1819 31.4171C63.4175 31.3128 63.6685 31.2317 63.935 31.1738C64.2054 31.112 64.4854 31.0676 64.775 31.0406C65.0647 31.0135 65.3505 31 65.6325 31C65.9415 31 66.2331 31.0135 66.5073 31.0406C66.7854 31.0676 67.0519 31.1043 67.3068 31.1506C67.5655 31.1931 67.8166 31.2433 68.0599 31.3013C68.3071 31.3592 68.5562 31.421 68.8073 31.4866V32.3209Z" fill="#2E354F"/>
<path d="M81.2689 35.1307C81.2689 35.8452 81.1395 36.4632 80.8807 36.9846C80.622 37.5021 80.2666 37.9309 79.8148 38.2707C79.3629 38.6068 78.8299 38.8559 78.2158 39.0181C77.6017 39.1803 76.9393 39.2614 76.2286 39.2614C75.5141 39.2614 74.8479 39.1803 74.2299 39.0181C73.6119 38.8559 73.0751 38.6068 72.6193 38.2707C72.1636 37.9309 71.8063 37.5021 71.5475 36.9846C71.2888 36.4632 71.1594 35.8452 71.1594 35.1307C71.1594 34.6556 71.2193 34.225 71.339 33.8388C71.4587 33.4487 71.6267 33.1011 71.843 32.796C72.0593 32.487 72.32 32.2205 72.6251 31.9965C72.9341 31.7725 73.2759 31.5871 73.6506 31.4403C74.0291 31.2897 74.4346 31.1796 74.8672 31.1101C75.2998 31.0367 75.7536 31 76.2286 31C76.9393 31 77.6017 31.0811 78.2158 31.2433C78.8299 31.4055 79.3629 31.6566 79.8148 31.9965C80.2666 32.3325 80.622 32.7612 80.8807 33.2826C81.1395 33.8002 81.2689 34.4162 81.2689 35.1307ZM80.5215 35.1307C80.5215 34.5668 80.4289 34.0686 80.2435 33.636C80.0619 33.2034 79.7916 32.8404 79.4324 32.5468C79.0732 32.2494 78.6252 32.0254 78.0883 31.8748C77.5553 31.7203 76.9354 31.6431 76.2286 31.6431C75.5218 31.6431 74.8981 31.7203 74.3574 31.8748C73.8205 32.0293 73.3705 32.2552 73.0075 32.5526C72.6444 32.8462 72.3702 33.2112 72.1848 33.6476C71.9994 34.0802 71.9067 34.5745 71.9067 35.1307C71.9067 35.6946 71.9994 36.1928 72.1848 36.6254C72.3702 37.058 72.6444 37.423 73.0075 37.7204C73.3705 38.0139 73.8205 38.2379 74.3574 38.3924C74.8981 38.543 75.5218 38.6183 76.2286 38.6183C76.9354 38.6183 77.5553 38.543 78.0883 38.3924C78.6252 38.2379 79.0732 38.0139 79.4324 37.7204C79.7916 37.423 80.0619 37.058 80.2435 36.6254C80.4289 36.1928 80.5215 35.6946 80.5215 35.1307Z" fill="#2E354F"/>
<path d="M83.3951 39.105V31.1448H84.1193V38.4272H89.9358V39.105H83.3951Z" fill="#2E354F"/>
<path d="M99.6804 36.6022C99.6804 37 99.5954 37.3631 99.4255 37.6914C99.2594 38.0158 99.0083 38.2958 98.6723 38.5314C98.3402 38.7632 97.923 38.9428 97.4209 39.0702C96.9188 39.1977 96.3337 39.2614 95.6655 39.2614C94.9974 39.2614 94.4122 39.1977 93.9101 39.0702C93.408 38.9428 92.989 38.7632 92.653 38.5314C92.3169 38.2958 92.064 38.0158 91.894 37.6914C91.7279 37.3631 91.6449 37 91.6449 36.6022V31.1448H92.3691V36.6602C92.3691 36.9267 92.4386 37.1796 92.5776 37.4191C92.7205 37.6547 92.931 37.8613 93.2091 38.039C93.4872 38.2167 93.831 38.3576 94.2404 38.4619C94.6498 38.5662 95.1248 38.6183 95.6655 38.6183C96.2024 38.6183 96.6755 38.5662 97.0849 38.4619C97.4943 38.3576 97.8381 38.2167 98.1161 38.039C98.3942 37.8613 98.6028 37.6547 98.7418 37.4191C98.8847 37.1796 98.9562 36.9267 98.9562 36.6602V31.1448H99.6804V36.6022Z" fill="#2E354F"/>
<path d="M105.52 31.8053V39.105H104.802V31.8053H101.181V31.1448H109.141V31.8053H105.52Z" fill="#2E354F"/>
<path d="M110.705 39.105V31.1448H111.429V39.105H110.705Z" fill="#2E354F"/>
<path d="M123.665 35.1307C123.665 35.8452 123.536 36.4632 123.277 36.9846C123.018 37.5021 122.663 37.9309 122.211 38.2707C121.759 38.6068 121.226 38.8559 120.612 39.0181C119.998 39.1803 119.335 39.2614 118.625 39.2614C117.91 39.2614 117.244 39.1803 116.626 39.0181C116.008 38.8559 115.471 38.6068 115.016 38.2707C114.56 37.9309 114.203 37.5021 113.944 36.9846C113.685 36.4632 113.556 35.8452 113.556 35.1307C113.556 34.6556 113.615 34.225 113.735 33.8388C113.855 33.4487 114.023 33.1011 114.239 32.796C114.456 32.487 114.716 32.2205 115.021 31.9965C115.33 31.7725 115.672 31.5871 116.047 31.4403C116.425 31.2897 116.831 31.1796 117.263 31.1101C117.696 31.0367 118.15 31 118.625 31C119.335 31 119.998 31.0811 120.612 31.2433C121.226 31.4055 121.759 31.6566 122.211 31.9965C122.663 32.3325 123.018 32.7612 123.277 33.2826C123.536 33.8002 123.665 34.4162 123.665 35.1307ZM122.918 35.1307C122.918 34.5668 122.825 34.0686 122.64 33.636C122.458 33.2034 122.188 32.8404 121.829 32.5468C121.469 32.2494 121.021 32.0254 120.485 31.8748C119.952 31.7203 119.332 31.6431 118.625 31.6431C117.918 31.6431 117.294 31.7203 116.754 31.8748C116.217 32.0293 115.767 32.2552 115.404 32.5526C115.041 32.8462 114.766 33.2112 114.581 33.6476C114.396 34.0802 114.303 34.5745 114.303 35.1307C114.303 35.6946 114.396 36.1928 114.581 36.6254C114.766 37.058 115.041 37.423 115.404 37.7204C115.767 38.0139 116.217 38.2379 116.754 38.3924C117.294 38.543 117.918 38.6183 118.625 38.6183C119.332 38.6183 119.952 38.543 120.485 38.3924C121.021 38.2379 121.469 38.0139 121.829 37.7204C122.188 37.423 122.458 37.058 122.64 36.6254C122.825 36.1928 122.918 35.6946 122.918 35.1307Z" fill="#2E354F"/>
<path d="M133.433 39.105L126.515 32.095V39.105H125.791V31.1448H126.591L133.508 38.178V31.1448H134.221V39.105H133.433Z" fill="#2E354F"/>
<path d="M143.334 32.3209C143.183 32.2475 143.009 32.1703 142.812 32.0892C142.615 32.0042 142.389 31.9289 142.135 31.8632C141.883 31.7976 141.6 31.7435 141.283 31.701C140.966 31.6547 140.615 31.6315 140.228 31.6315C139.761 31.6315 139.344 31.6585 138.977 31.7126C138.614 31.7667 138.305 31.8516 138.05 31.9675C137.799 32.0795 137.606 32.2224 137.471 32.3962C137.34 32.57 137.274 32.7766 137.274 33.0161C137.274 33.2169 137.336 33.3927 137.459 33.5433C137.587 33.6939 137.757 33.8272 137.969 33.9431C138.185 34.0589 138.436 34.1651 138.722 34.2617C139.012 34.3544 139.317 34.4432 139.638 34.5282C139.962 34.6093 140.294 34.6923 140.634 34.7773C140.978 34.8623 141.31 34.955 141.63 35.0554C141.955 35.1519 142.26 35.262 142.546 35.3856C142.836 35.5053 143.087 35.6463 143.299 35.8085C143.515 35.9707 143.685 36.1561 143.809 36.3647C143.936 36.5733 144 36.8147 144 37.0889C144 37.3863 143.944 37.647 143.832 37.871C143.72 38.0911 143.567 38.2823 143.374 38.4445C143.185 38.6029 142.961 38.7361 142.702 38.8443C142.447 38.9486 142.173 39.0316 141.88 39.0934C141.59 39.1552 141.289 39.1977 140.976 39.2209C140.667 39.2479 140.362 39.2614 140.06 39.2614C139.369 39.2614 138.742 39.2112 138.178 39.1108C137.618 39.0104 137.083 38.8733 136.573 38.6994V37.8131C137.098 38.1259 137.652 38.3403 138.236 38.4561C138.823 38.572 139.439 38.6299 140.084 38.6299C140.539 38.6299 140.96 38.6029 141.347 38.5488C141.733 38.4947 142.067 38.4098 142.349 38.2939C142.631 38.1742 142.849 38.0197 143.004 37.8304C143.162 37.6412 143.241 37.4094 143.241 37.1352C143.241 36.9151 143.177 36.722 143.05 36.5559C142.926 36.3898 142.756 36.245 142.54 36.1214C142.328 35.9939 142.077 35.8819 141.787 35.7854C141.501 35.6888 141.198 35.6 140.877 35.5189C140.557 35.4339 140.225 35.3528 139.881 35.2755C139.541 35.1944 139.211 35.1075 138.89 35.0148C138.57 34.9221 138.265 34.8179 137.975 34.702C137.689 34.5861 137.438 34.4509 137.222 34.2965C137.009 34.1381 136.839 33.9566 136.712 33.7519C136.588 33.5472 136.526 33.3096 136.526 33.0393C136.526 32.7728 136.577 32.5372 136.677 32.3325C136.778 32.1239 136.915 31.9443 137.088 31.7937C137.266 31.6431 137.473 31.5175 137.708 31.4171C137.944 31.3128 138.195 31.2317 138.461 31.1738C138.732 31.112 139.012 31.0676 139.302 31.0406C139.591 31.0135 139.877 31 140.159 31C140.468 31 140.76 31.0135 141.034 31.0406C141.312 31.0676 141.578 31.1043 141.833 31.1506C142.092 31.1931 142.343 31.2433 142.586 31.3013C142.834 31.3592 143.083 31.421 143.334 31.4866V32.3209Z" fill="#2E354F"/>
<path d="M112.258 12.5647C112.038 12.4577 111.747 12.3367 111.385 12.2015C111.023 12.0663 110.613 11.9396 110.156 11.8214C109.698 11.6975 109.2 11.5961 108.663 11.5173C108.126 11.4328 107.575 11.3906 107.01 11.3906C106.558 11.3906 106.171 11.4046 105.849 11.4328C105.532 11.461 105.264 11.4976 105.043 11.5426C104.828 11.5877 104.656 11.6412 104.526 11.7031C104.402 11.7594 104.306 11.8186 104.238 11.8805C104.17 11.9424 104.125 12.0044 104.102 12.0663C104.085 12.1283 104.077 12.1846 104.077 12.2353C104.077 12.4042 104.162 12.5535 104.331 12.683C104.501 12.8069 104.732 12.9195 105.026 13.0209C105.32 13.1166 105.662 13.2095 106.052 13.2996C106.442 13.3841 106.855 13.4742 107.29 13.5699C107.731 13.66 108.183 13.7614 108.646 13.874C109.116 13.981 109.568 14.1078 110.003 14.2542C110.444 14.4006 110.859 14.5724 111.249 14.7695C111.639 14.9609 111.981 15.1862 112.275 15.4452C112.569 15.7043 112.801 16.0027 112.97 16.3406C113.14 16.6785 113.225 17.0643 113.225 17.4979C113.225 18.0554 113.126 18.5341 112.928 18.9339C112.73 19.3338 112.464 19.6717 112.131 19.9476C111.803 20.2235 111.422 20.446 110.986 20.6149C110.551 20.7782 110.093 20.9049 109.613 20.9951C109.138 21.0852 108.655 21.1443 108.163 21.1724C107.677 21.2006 107.214 21.2147 106.773 21.2147C105.62 21.2147 104.552 21.1189 103.568 20.9275C102.59 20.7416 101.725 20.5079 100.974 20.2264V17.4557C101.748 17.8837 102.63 18.2187 103.619 18.4609C104.614 18.703 105.676 18.8241 106.807 18.8241C107.474 18.8241 108.016 18.7903 108.434 18.7228C108.858 18.6495 109.189 18.5594 109.426 18.4524C109.664 18.3398 109.825 18.2187 109.91 18.0892C109.994 17.9597 110.037 17.8358 110.037 17.7175C110.037 17.5317 109.952 17.3712 109.782 17.236C109.613 17.0953 109.381 16.9742 109.087 16.8728C108.793 16.7658 108.451 16.6701 108.061 16.5856C107.671 16.4955 107.256 16.4082 106.815 16.3237C106.38 16.2336 105.931 16.1379 105.467 16.0365C105.004 15.9352 104.552 15.8169 104.111 15.6818C103.675 15.541 103.263 15.3805 102.873 15.2003C102.483 15.0144 102.141 14.7976 101.847 14.5498C101.553 14.2964 101.321 14.0064 101.152 13.6798C100.982 13.3475 100.897 12.9646 100.897 12.5309C100.897 12.0185 100.988 11.5764 101.169 11.2047C101.35 10.833 101.593 10.5177 101.898 10.2586C102.209 9.99396 102.565 9.77996 102.966 9.61665C103.373 9.45333 103.8 9.32663 104.246 9.23652C104.693 9.14642 105.145 9.08447 105.603 9.05068C106.061 9.01689 106.496 9 106.908 9C107.361 9 107.824 9.02253 108.299 9.06758C108.779 9.11263 109.251 9.17739 109.715 9.26186C110.178 9.3407 110.625 9.43362 111.054 9.54062C111.489 9.64762 111.891 9.76025 112.258 9.87851V12.5647Z" fill="#2E354F"/>
<path d="M116.209 20.9021V9.29565H128.002V11.7707H119.439V13.6882H127.561V16.1632H119.439V18.4271H128.121V20.9021H116.209Z" fill="#2E354F"/>
<path d="M144 20.1081C143.593 20.277 143.183 20.4291 142.771 20.5642C142.358 20.6994 141.931 20.8148 141.491 20.9106C141.05 21.0119 140.583 21.088 140.092 21.1387C139.606 21.1893 139.083 21.2147 138.523 21.2147C137.336 21.2147 136.243 21.088 135.242 20.8346C134.247 20.5811 133.388 20.201 132.665 19.6942C131.947 19.1817 131.387 18.5454 130.986 17.7851C130.585 17.0192 130.384 16.1266 130.384 15.1073C130.384 14.088 130.585 13.1983 130.986 12.438C131.387 11.6721 131.947 11.0358 132.665 10.5289C133.388 10.0165 134.247 9.63354 135.242 9.38012C136.243 9.12671 137.336 9 138.523 9C139.083 9 139.606 9.02534 140.092 9.07602C140.583 9.12671 141.05 9.20273 141.491 9.3041C141.931 9.39984 142.358 9.51528 142.771 9.65044C143.183 9.78559 143.593 9.93764 144 10.1066V12.928C143.678 12.7534 143.339 12.5816 142.983 12.4127C142.627 12.2381 142.234 12.0832 141.804 11.9481C141.375 11.8073 140.903 11.6947 140.388 11.6102C139.874 11.5201 139.295 11.475 138.65 11.475C137.661 11.475 136.839 11.5764 136.183 11.7791C135.533 11.9819 135.013 12.2522 134.623 12.5901C134.233 12.928 133.959 13.3165 133.801 13.7558C133.643 14.1894 133.563 14.6399 133.563 15.1073C133.563 15.4171 133.597 15.724 133.665 16.0281C133.733 16.3266 133.846 16.6109 134.004 16.8813C134.163 17.1459 134.369 17.3909 134.623 17.6162C134.878 17.8414 135.194 18.0357 135.573 18.199C135.951 18.3623 136.392 18.4919 136.895 18.5876C137.404 18.6777 137.989 18.7228 138.65 18.7228C139.295 18.7228 139.874 18.6833 140.388 18.6045C140.903 18.52 141.375 18.4102 141.804 18.275C142.234 18.1399 142.627 17.9878 142.983 17.8189C143.339 17.6443 143.678 17.4669 144 17.2867V20.1081Z" fill="#2E354F"/>
<path d="M76.8112 20.9021V12.7506L72.4874 20.9021H69.4692L65.1454 12.7506V20.9021H62V9.29565H66.273L70.9783 18.0808L75.6836 9.29565H79.9396V20.9021H76.8112Z" fill="#FE6535"/>
<path d="M98.6592 15.1073C98.6592 16.1041 98.4755 16.9854 98.1081 17.7513C97.7408 18.5116 97.2151 19.1479 96.5312 19.6604C95.8473 20.1729 95.0165 20.5614 94.0387 20.8261C93.0665 21.0852 91.9728 21.2147 90.7577 21.2147C89.5425 21.2147 88.4431 21.0852 87.4597 20.8261C86.4819 20.5614 85.6482 20.1729 84.9586 19.6604C84.2691 19.1479 83.7378 18.5116 83.3648 17.7513C82.9917 16.9854 82.8052 16.1041 82.8052 15.1073C82.8052 14.1106 82.9917 13.2321 83.3648 12.4718C83.7378 11.7059 84.2691 11.0668 84.9586 10.5543C85.6482 10.0418 86.4819 9.65607 87.4597 9.39702C88.4431 9.13234 89.5425 9 90.7577 9C91.9728 9 93.0665 9.13234 94.0387 9.39702C95.0165 9.65607 95.8473 10.0418 96.5312 10.5543C97.2151 11.0668 97.7408 11.7059 98.1081 12.4718C98.4755 13.2321 98.6592 14.1106 98.6592 15.1073ZM95.4799 15.1073C95.4799 14.6737 95.4093 14.2429 95.268 13.8149C95.1323 13.3813 94.8865 12.9927 94.5304 12.6492C94.18 12.3057 93.6995 12.0269 93.0891 11.8129C92.4787 11.5989 91.7015 11.4919 90.7577 11.4919C90.1246 11.4919 89.5679 11.5426 89.0875 11.644C88.607 11.7397 88.1916 11.8749 87.8412 12.0494C87.4908 12.224 87.1969 12.4296 86.9595 12.6661C86.7221 12.897 86.5327 13.1476 86.3914 13.4179C86.2501 13.6826 86.1484 13.9613 86.0862 14.2542C86.0297 14.5414 86.0014 14.8258 86.0014 15.1073C86.0014 15.3945 86.0297 15.6846 86.0862 15.9774C86.1484 16.2702 86.2501 16.5518 86.3914 16.8221C86.5327 17.0868 86.7221 17.3346 86.9595 17.5655C87.1969 17.7964 87.4908 17.9991 87.8412 18.1737C88.1916 18.3426 88.607 18.4778 89.0875 18.5791C89.5679 18.6749 90.1246 18.7228 90.7577 18.7228C91.7015 18.7228 92.4787 18.6158 93.0891 18.4018C93.6995 18.1878 94.18 17.909 94.5304 17.5655C94.8865 17.222 95.1323 16.8362 95.268 16.4082C95.4093 15.9746 95.4799 15.541 95.4799 15.1073Z" fill="#FE6535"/>
<circle cx="24" cy="24" r="24" fill="#2E354F"/>
<path d="M11.0346 37.6007L14.2738 34.2004" stroke="white" stroke-width="1.86156"/>
<path d="M37.1822 37.6007L33.9431 34.2004" stroke="white" stroke-width="1.86156"/>
<path d="M14.9843 13.5261L11.7452 10.1258" stroke="white" stroke-width="1.86156"/>
<path d="M25.2219 38.2864C25.2653 38.7938 24.8889 39.2433 24.3798 39.256C20.816 39.3448 17.322 38.1824 14.5142 35.9545C11.4649 33.535 9.45536 30.0418 8.89679 26.1895C8.33822 22.3372 9.2728 18.417 11.5093 15.2311C13.5688 12.2974 16.5887 10.1905 20.031 9.26352C20.5228 9.13109 21.0113 9.45513 21.1138 9.95396C21.2163 10.4528 20.8938 10.9371 20.4032 11.0736C17.4215 11.9032 14.8078 13.7421 13.0187 16.2907C11.0525 19.0916 10.2308 22.538 10.7219 25.9248C11.213 29.3116 12.9796 32.3827 15.6605 34.5099C18.0997 36.4453 21.128 37.4661 24.2226 37.4147C24.7318 37.4062 25.1785 37.779 25.2219 38.2864Z" fill="white"/>
<path d="M37.4708 19.0858C37.9492 18.9113 38.4814 19.157 38.6267 19.6451C39.2822 21.847 39.4333 24.1726 39.0634 26.448C38.6442 29.0274 37.5696 31.4559 35.9426 33.5009C34.3157 35.5459 32.1908 37.1388 29.7717 38.1271C27.6376 38.999 25.3376 39.3746 23.0447 39.2307C22.5364 39.1989 22.1774 38.7355 22.2399 38.2301C22.3024 37.7247 22.7629 37.369 23.2714 37.3967C25.2503 37.5043 27.2325 37.1723 29.0742 36.4199C31.201 35.5511 33.0691 34.1506 34.4995 32.3527C35.9298 30.5549 36.8745 28.4198 37.2431 26.1521C37.5623 24.1884 37.4402 22.1823 36.8905 20.2782C36.7493 19.7889 36.9924 19.2603 37.4708 19.0858Z" fill="white"/>
<path d="M20.109 37.8006C19.9708 38.2907 19.4603 38.5787 18.9794 38.4112C17.3248 37.8348 15.7797 36.977 14.4129 35.8734C12.8067 34.5766 11.4802 32.9673 10.5139 31.1429C9.54759 29.3186 8.96146 27.3172 8.79098 25.2598C8.62049 23.2024 8.86921 21.1318 9.52207 19.1733C10.1749 17.2148 11.2184 15.4092 12.5892 13.8656C13.9601 12.322 15.6299 11.0726 17.4976 10.193C19.3653 9.31337 21.392 8.82184 23.4551 8.74813C25.2106 8.68542 26.9615 8.92633 28.6309 9.45799C29.1162 9.61252 29.3518 10.1493 29.1682 10.6243C28.9847 11.0993 28.4515 11.3323 27.965 11.1818C26.5294 10.7377 25.0271 10.5373 23.521 10.5911C21.7071 10.6559 19.9253 11.0881 18.2833 11.8614C16.6414 12.6347 15.1733 13.7331 13.9681 15.0902C12.7629 16.4472 11.8456 18.0347 11.2716 19.7565C10.6976 21.4784 10.479 23.2987 10.6289 25.1075C10.7787 26.9163 11.294 28.6758 12.1436 30.2797C12.9931 31.8836 14.1593 33.2984 15.5714 34.4386C16.744 35.3854 18.066 36.1264 19.481 36.6326C19.9605 36.8041 20.2472 37.3104 20.109 37.8006Z" fill="white"/>
<path d="M5.27137 20.6045C4.80844 20.5206 4.49935 20.0767 4.60302 19.6178C5.41916 16.0048 7.22989 12.6855 9.83807 10.0396C12.6459 7.19113 16.2475 5.25559 20.1724 4.48573C24.0973 3.71587 28.1632 4.14748 31.839 5.72418C35.5148 7.30088 38.6298 9.94939 40.777 13.3238C42.9243 16.6983 44.0041 20.6418 43.8754 24.6395C43.7467 28.6371 42.4155 32.503 40.0556 35.7324C37.6957 38.9617 34.4169 41.4044 30.6473 42.7414C27.1457 43.9833 23.3718 44.2176 19.7533 43.4266C19.2937 43.3261 19.0225 42.8581 19.1425 42.4032C19.2626 41.9483 19.7284 41.6789 20.1885 41.7776C23.4752 42.4823 26.8992 42.263 30.0777 41.1357C33.5244 39.9132 36.5223 37.6798 38.68 34.7272C40.8377 31.7745 42.0548 28.2398 42.1725 24.5847C42.2902 20.9295 41.3029 17.3239 39.3396 14.2385C37.3763 11.1532 34.5283 8.73158 31.1674 7.28997C27.8065 5.84835 24.089 5.45373 20.5003 6.15763C16.9117 6.86153 13.6187 8.63124 11.0514 11.2356C8.68384 13.6375 7.03494 16.6462 6.28112 19.9221C6.17562 20.3806 5.73431 20.6884 5.27137 20.6045Z" fill="white"/>
<path d="M14.987 40.8178C14.7771 41.2095 14.2884 41.3583 13.9055 41.1327C11.2334 39.5584 8.9632 37.3788 7.28023 34.7649C5.59726 32.1511 4.5526 29.1823 4.22531 26.0983C4.17841 25.6564 4.51609 25.2731 4.95956 25.2441C5.40302 25.2151 5.78418 25.5514 5.83266 25.9932C6.14114 28.8044 7.09837 31.5097 8.63336 33.8937C10.1683 36.2777 12.2349 38.2687 14.6664 39.713C15.0485 39.9399 15.1969 40.4261 14.987 40.8178Z" fill="white"/>
<path d="M18.0284 17.9576C18.0284 17.7035 18.2344 17.4976 18.4885 17.4976L24.1622 17.4976L25.1178 17.4976C25.3004 17.4976 25.4485 17.6456 25.4485 17.8282V19.8647H27.8229V22.2464H29.8667C30.0493 22.2464 30.1973 22.3944 30.1973 22.577V24.8042C30.1973 26.9508 29.1299 28.9568 27.3495 30.1561L24.1837 32.2887C24.073 32.3632 23.9279 32.3619 23.8186 32.2855L20.7841 30.1642C19.0572 28.957 18.0284 26.9826 18.0284 24.8754L18.0284 17.9576Z" fill="white"/>
<path d="M29.8667 19.8647C30.0493 19.8647 30.1973 19.7167 30.1973 19.5341V17.9576C30.1973 17.7035 29.9913 17.4976 29.7372 17.4976H28.1535C27.9709 17.4976 27.8229 17.6456 27.8229 17.8282V19.8647H29.8667Z" fill="white"/>
<rect x="22.7773" y="20.1686" width="2.37441" height="2.37441" rx="0.460067" fill="#FE6535"/>
<rect x="32.3243" y="13.8252" width="2.31229" height="2.31229" rx="0.460067" fill="white"/>
<rect x="25.1517" y="22.5432" width="2.37441" height="2.37441" rx="0.460067" fill="#FE6535"/>
</svg>
